<?xml version="1.0" standalone="no"?>
<!DOCTYPE svg PUBLIC "-//W3C//DTD SVG 20010904//EN"
 "http://www.w3.org/TR/2001/REC-SVG-20010904/DTD/svg10.dtd">
<svg version="1.0" xmlns="http://www.w3.org/2000/svg"
 width="406.000000pt" height="406.000000pt" viewBox="0 0 406.000000 406.000000"
 preserveAspectRatio="xMidYMid meet">

<g transform="translate(0.000000,406.000000) scale(0.100000,-0.100000)"
fill="#000000" stroke="none">
<path d="M343 3790 c-107 -22 -197 -90 -244 -185 l-24 -50 0 -1520 0 -1520 24
-50 c32 -63 93 -124 156 -156 l50 -24 1725 0 1725 0 50 24 c63 32 124 93 156
156 l24 50 0 1520 0 1520 -25 50 c-33 69 -107 139 -177 167 l-58 23 -1670 1
c-919 1 -1689 -2 -1712 -6z m1082 -272 c6 -27 485 -2967 485 -2979 0 -5 -105
-9 -234 -9 l-234 0 -5 23 c-3 12 -22 145 -43 295 l-39 272 -270 -2 -270 -3
-42 -285 c-23 -157 -42 -288 -42 -292 -1 -5 -100 -8 -221 -8 l-220 0 5 23 c5
23 485 2972 485 2982 0 3 144 5 320 5 l320 0 5 -22z m1055 -1483 l0 -1505
-235 0 -235 0 0 1505 0 1505 235 0 235 0 0 -1505z m1100 1350 l0 -105 -245 0
-245 0 0 -200 0 -200 195 0 195 0 0 -105 0 -105 -195 0 -195 0 0 -230 0 -230
245 0 245 0 0 -105 0 -105 -385 0 -385 0 0 745 0 745 385 0 385 0 0 -105z
m-506 -1537 c3 -13 30 -232 61 -487 30 -255 56 -466 58 -467 3 -3 118 950 117
969 0 4 61 7 135 7 l135 0 0 -690 0 -690 -90 0 -90 0 -1 508 -1 507 -67 -505
-66 -505 -77 -3 c-43 -2 -78 -2 -79 0 0 2 -31 235 -69 518 l-68 515 -1 -517
-1 -518 -80 0 -80 0 0 690 0 690 130 0 c126 0 130 -1 134 -22z"/>
<path d="M1076 2989 c-3 -13 -49 -337 -101 -719 -52 -382 -97 -705 -100 -717
l-5 -23 215 0 215 0 -5 23 c-3 12 -50 344 -106 737 -55 393 -102 716 -104 718
-2 3 -6 -6 -9 -19z"/>
</g>
</svg>
